<svg width="51" height="65" viewBox="0 0 51 65" fill="none" xmlns="http://www.w3.org/2000/svg">
<path d="M31.9367 18.4994C33.8412 18.5012 35.7241 18.9166 37.4623 19.7185C39.2005 20.5204 40.7552 21.6908 42.025 23.1533L46 19.4612C43.4556 16.5461 40.1175 14.4887 36.4211 13.5578C32.7248 12.6268 28.8419 12.8654 25.2791 14.2424C21.7164 15.6194 18.6391 18.0708 16.4491 21.2768C14.2589 24.4829 13.0577 28.2945 13.002 32.2146C12.9463 36.1346 14.0388 39.981 16.1368 43.2516C18.235 46.5224 21.2412 49.0656 24.7633 50.5494C28.2854 52.0332 32.1599 52.3887 35.8811 51.5696C39.6023 50.7505 42.9975 48.7948 45.6236 45.9576L41.7388 42.1569C40.1913 43.8242 38.2669 45.0705 36.1378 45.7843C34.0086 46.4981 31.7408 46.6572 29.5374 46.2473C27.3338 45.8375 25.2634 44.8716 23.5108 43.4358C21.7582 42 20.3782 40.1392 19.4943 38.0197C18.6103 35.9001 18.2498 33.5879 18.4451 31.2898C18.6405 28.9917 19.3854 26.7792 20.6134 24.8503C21.8415 22.9212 23.5143 21.3358 25.4824 20.2357C27.4505 19.1355 29.6525 18.555 31.8916 18.5459L31.9367 18.4994Z" fill="white"/>
<path d="M14 14.7393L9.9594 11C6.8029 13.8841 4.2982 17.3123 2.589 21.0878C0.879901 24.8632 0 28.9114 0 33C0 37.0886 0.879901 41.1368 2.589 44.9122C4.2982 48.6877 6.8029 52.1159 9.9594 55L14 51.2607C11.3683 48.8729 9.2789 46.0294 7.8528 42.8947C6.4268 39.7602 5.6925 36.397 5.6925 33C5.6925 29.603 6.4268 26.2398 7.8528 23.1053C9.2789 19.9706 11.3683 17.1271 14 14.7393Z" fill="white"/>
<path d="M51 7.06397C45.4907 2.46569 38.8335 -0.00935522 32 2.65733e-05V6.1919C37.6385 6.18601 43.1326 8.22012 47.6877 12L51 7.06397Z" fill="white"/>
<path d="M32 59.4006V65C38.0371 65.0072 43.9451 63.1435 49 59.6372L46.0306 55C41.8534 57.879 36.9793 59.4078 32 59.4006Z" fill="white"/>
<path d="M32 52.7752C27.843 52.7724 23.7872 51.5456 20.3817 49.2606C16.9761 46.9757 14.3852 43.7429 12.9596 40L8 42.2077C9.86768 46.8558 13.1605 50.8527 17.4447 53.6717C21.7289 56.4907 26.8034 57.9997 32 58V52.7752Z" fill="white"/>
<path d="M12.3048 32C12.6273 26.7395 14.8421 21.8049 18.4997 18.1974C22.1573 14.59 26.9838 12.5798 32 12.5747V7C25.5763 6.9998 19.3984 9.595 14.7448 14.2485C10.0912 18.9021 7.31827 25.2577 7 32H12.3048Z" fill="white"/>
</svg>
